<svg xmlns="http://www.w3.org/2000/svg" viewBox="0 0 200 200" width="200" height="200">
  <!-- School building -->
  <rect x="40" y="100" width="120" height="80" fill="#2563eb" stroke="#1e40af" stroke-width="3"/>
  <!-- Roof -->
  <polygon points="40,100 100,40 160,100" fill="#dc2626" stroke="#991b1b" stroke-width="3"/>
  <!-- Door -->
  <rect x="80" y="140" width="40" height="40" fill="#fbbf24" stroke="#f59e0b" stroke-width="2"/>
  <circle cx="110" cy="160" r="2" fill="#78350f"/>
  <!-- Windows -->
  <rect x="50" y="110" width="25" height="25" fill="#dbeafe" stroke="#3b82f6" stroke-width="2"/>
  <rect x="125" y="110" width="25" height="25" fill="#dbeafe" stroke="#3b82f6" stroke-width="2"/>
  <!-- Cross window lines -->
  <line x1="62.5" y1="110" x2="62.5" y2="135" stroke="#3b82f6" stroke-width="2"/>
  <line x1="50" y1="122.5" x2="75" y2="122.5" stroke="#3b82f6" stroke-width="2"/>
  <line x1="137.5" y1="110" x2="137.5" y2="135" stroke="#3b82f6" stroke-width="2"/>
  <line x1="125" y1="122.5" x2="150" y2="122.5" stroke="#3b82f6" stroke-width="2"/>
  <!-- California sun (top right) -->
  <circle cx="170" cy="30" r="20" fill="#fbbf24" stroke="#f59e0b" stroke-width="2"/>
  <!-- Sun rays -->
  <line x1="170" y1="10" x2="170" y2="5" stroke="#fbbf24" stroke-width="3" stroke-linecap="round"/>
  <line x1="170" y1="50" x2="170" y2="55" stroke="#fbbf24" stroke-width="3" stroke-linecap="round"/>
  <line x1="150" y1="30" x2="145" y2="30" stroke="#fbbf24" stroke-width="3" stroke-linecap="round"/>
  <line x1="190" y1="30" x2="195" y2="30" stroke="#fbbf24" stroke-width="3" stroke-linecap="round"/>
  <line x1="157" y1="17" x2="153" y2="13" stroke="#fbbf24" stroke-width="3" stroke-linecap="round"/>
  <line x1="183" y1="43" x2="187" y2="47" stroke="#fbbf24" stroke-width="3" stroke-linecap="round"/>
  <line x1="157" y1="43" x2="153" y2="47" stroke="#fbbf24" stroke-width="3" stroke-linecap="round"/>
  <line x1="183" y1="17" x2="187" y2="13" stroke="#fbbf24" stroke-width="3" stroke-linecap="round"/>
</svg>
